<svg xmlns="http://www.w3.org/2000/svg" xmlns:xlink="http://www.w3.org/1999/xlink" width="2000" zoomAndPan="magnify" viewBox="0 0 1500 1499.999933" height="2000" preserveAspectRatio="xMidYMid meet" version="1.0"><defs><clipPath id="800fd6a72c"><path d="M 565 130.65625 L 892 130.65625 L 892 213 L 565 213 Z M 565 130.65625 " clip-rule="nonzero"/></clipPath></defs><rect x="-150" width="1800" fill="#ffffff" y="-149.999993" height="1799.99992" fill-opacity="1"/><rect x="-150" width="1800" fill="#1d293d" y="-149.999993" height="1799.99992" fill-opacity="1"/><g clip-path="url(#800fd6a72c)"><path fill="#ffffff" d="M 891.605469 212.148438 L 891.605469 171.402344 C 891.605469 148.992188 873.269531 130.65625 850.859375 130.65625 L 606.382812 130.65625 C 583.96875 130.65625 565.636719 148.992188 565.636719 171.402344 L 565.636719 212.148438 Z M 891.605469 212.148438 " fill-opacity="1" fill-rule="nonzero"/></g><path fill="#ffffff" d="M 565.636719 293.640625 L 891.605469 293.640625 L 891.605469 415.878906 L 565.636719 415.878906 Z M 565.636719 293.640625 " fill-opacity="1" fill-rule="nonzero"/><path fill="#ffffff" d="M 687.875 1278.070312 L 687.875 673.394531 L 306.082031 826.195312 C 286.117188 834.34375 275.929688 856.347656 282.449219 877.128906 L 412.023438 1266.253906 C 332.972656 1282.144531 249.851562 1271.957031 176.507812 1235.285156 C 156.136719 1225.097656 132.097656 1233.25 121.910156 1253.621094 C 111.722656 1273.585938 119.871094 1298.035156 140.246094 1308.222656 C 202.992188 1339.597656 271.449219 1355.488281 339.902344 1355.488281 C 385.535156 1355.488281 431.171875 1348.152344 475.179688 1334.300781 C 475.992188 1334.300781 476.808594 1334.300781 477.625 1334.300781 C 478.4375 1334.300781 479.253906 1333.078125 480.066406 1332.667969 C 488.625 1329.816406 497.179688 1327.371094 505.332031 1323.707031 L 516.738281 1319.222656 C 572.15625 1296.8125 630.015625 1284.179688 688.28125 1280.105469 C 688.28125 1279.292969 688.28125 1278.882812 688.28125 1278.476562 Z M 687.875 1278.070312 " fill-opacity="1" fill-rule="nonzero"/><path fill="#ffffff" d="M 1335.328125 1253.214844 C 1325.144531 1233.25 1300.695312 1225.097656 1280.730469 1234.878906 C 1207.386719 1271.550781 1124.265625 1281.738281 1045.21875 1265.84375 L 1174.789062 876.71875 C 1181.71875 856.347656 1171.121094 833.9375 1151.15625 825.785156 L 769.367188 672.988281 L 769.367188 1277.253906 C 769.367188 1277.253906 769.367188 1278.476562 769.367188 1278.882812 C 827.632812 1282.960938 885.492188 1295.589844 940.90625 1318 L 952.316406 1322.484375 C 960.464844 1325.742188 969.023438 1328.1875 977.171875 1331.039062 C 978.394531 1331.445312 979.207031 1332.667969 980.429688 1332.667969 C 981.652344 1333.078125 983.28125 1332.667969 984.503906 1333.484375 C 1094.519531 1368.117188 1213.90625 1359.15625 1317.808594 1307.40625 C 1337.773438 1297.21875 1345.925781 1272.773438 1336.144531 1252.808594 Z M 1335.328125 1253.214844 " fill-opacity="1" fill-rule="nonzero"/><path fill="#ffffff" d="M 361.902344 716.179688 L 683.390625 587.421875 C 698.058594 581.71875 713.136719 578.867188 728.621094 578.867188 C 744.101562 578.867188 759.585938 581.71875 773.847656 587.421875 L 1095.335938 715.773438 L 1095.335938 537.710938 C 1095.335938 515.300781 1077 496.964844 1054.589844 496.964844 L 402.648438 496.964844 C 380.238281 496.964844 361.902344 515.300781 361.902344 537.710938 Z M 361.902344 716.179688 " fill-opacity="1" fill-rule="nonzero"/></svg>